# xmcd
#
# Track frame offsets:
#	183
#	16043
#	31108
#	43463
#	57233
#	67748
#	78710
#	92003
#	113943
#	128878
#
# Disc length: 1885 seconds
#
# Revision: 7
# Processed by: cddbd v1.5.2PL0 Copyright (c) Steve Scherf et al.
# Submitted via: EZCDAudioConverter 6.0.7.1
#
DISCID=7c075b0a
DTITLE=George Strait - Chill Of An Early Fall
DYEAR=1991
DGENRE=Country
TTITLE0=The Chill Of an Early Fall
TTITLE1=I've Convinced Everybody But Me
TTITLE2=If I Know Me
TTITLE3=You Know Me Better Than That
TTITLE4=Anything You Can Spare
TTITLE5=Home In San Antone
TTITLE6=Lovesick Blues
TTITLE7=Milk Cow Blues
TTITLE8=Her Only Bad Habit Is Me
TTITLE9=Is It Already Time
EXTD=
EXTT0=
EXTT1=
EXTT2=
EXTT3=
EXTT4=
EXTT5=
EXTT6=
EXTT7=
EXTT8=
EXTT9=
PLAYORDER=
